solid ascii
  facet normal -0.000000e+000 1.000000e+000 0.000000e+000
    outer loop
      vertex   -1.650000e+002 4.500000e+001 0.000000e+000
      vertex   -1.650000e+002 4.500000e+001 1.000000e+001
      vertex   -1.550000e+002 4.500000e+001 0.000000e+000
    endloop
  endfacet
  facet normal 0.000000e+000 1.000000e+000 -0.000000e+000
    outer loop
      vertex   -1.550000e+002 4.500000e+001 0.000000e+000
      vertex   -1.650000e+002 4.500000e+001 1.000000e+001
      vertex   -1.550000e+002 4.500000e+001 1.000000e+001
    endloop
  endfacet
  facet normal -1.000000e+000 0.000000e+000 0.000000e+000
    outer loop
      vertex   -1.550000e+002 4.500000e+001 0.000000e+000
      vertex   -1.550000e+002 4.500000e+001 1.000000e+001
      vertex   -1.550000e+002 5.500000e+001 0.000000e+000
    endloop
  endfacet
  facet normal -1.000000e+000 0.000000e+000 0.000000e+000
    outer loop
      vertex   -1.550000e+002 5.500000e+001 0.000000e+000
      vertex   -1.550000e+002 4.500000e+001 1.000000e+001
      vertex   -1.550000e+002 5.500000e+001 1.000000e+001
    endloop
  endfacet
  facet normal -0.000000e+000 -1.000000e+000 0.000000e+000
    outer loop
      vertex   -1.550000e+002 5.500000e+001 0.000000e+000
      vertex   -1.550000e+002 5.500000e+001 1.000000e+001
      vertex   -1.650000e+002 5.500000e+001 0.000000e+000
    endloop
  endfacet
  facet normal 0.000000e+000 -1.000000e+000 0.000000e+000
    outer loop
      vertex   -1.650000e+002 5.500000e+001 0.000000e+000
      vertex   -1.550000e+002 5.500000e+001 1.000000e+001
      vertex   -1.650000e+002 5.500000e+001 1.000000e+001
    endloop
  endfacet
  facet normal 1.000000e+000 0.000000e+000 -0.000000e+000
    outer loop
      vertex   -1.650000e+002 5.500000e+001 0.000000e+000
      vertex   -1.650000e+002 5.500000e+001 1.000000e+001
      vertex   -1.650000e+002 4.500000e+001 0.000000e+000
    endloop
  endfacet
  facet normal 1.000000e+000 0.000000e+000 -0.000000e+000
    outer loop
      vertex   -1.650000e+002 4.500000e+001 0.000000e+000
      vertex   -1.650000e+002 5.500000e+001 1.000000e+001
      vertex   -1.650000e+002 4.500000e+001 1.000000e+001
    endloop
  endfacet
  facet normal 0.000000e+000 0.000000e+000 1.000000e+000
    outer loop
      vertex   -1.550000e+002 5.500000e+001 1.000000e+001
      vertex   -1.750000e+002 6.000000e+001 1.000000e+001
      vertex   -1.650000e+002 5.500000e+001 1.000000e+001
    endloop
  endfacet
  facet normal 0.000000e+000 -0.000000e+000 1.000000e+000
    outer loop
      vertex   -1.550000e+002 5.500000e+001 1.000000e+001
      vertex   -1.450000e+002 6.000000e+001 1.000000e+001
      vertex   -1.750000e+002 6.000000e+001 1.000000e+001
    endloop
  endfacet
  facet normal -0.000000e+000 0.000000e+000 1.000000e+000
    outer loop
      vertex   -1.550000e+002 5.500000e+001 1.000000e+001
      vertex   -1.450000e+002 4.000000e+001 1.000000e+001
      vertex   -1.450000e+002 6.000000e+001 1.000000e+001
    endloop
  endfacet
  facet normal 0.000000e+000 0.000000e+000 1.000000e+000
    outer loop
      vertex   -1.550000e+002 5.500000e+001 1.000000e+001
      vertex   -1.550000e+002 4.500000e+001 1.000000e+001
      vertex   -1.450000e+002 4.000000e+001 1.000000e+001
    endloop
  endfacet
  facet normal 0.000000e+000 0.000000e+000 1.000000e+000
    outer loop
      vertex   -1.450000e+002 4.000000e+001 1.000000e+001
      vertex   -1.550000e+002 4.500000e+001 1.000000e+001
      vertex   -1.650000e+002 4.500000e+001 1.000000e+001
    endloop
  endfacet
  facet normal 0.000000e+000 0.000000e+000 1.000000e+000
    outer loop
      vertex   -1.750000e+002 4.000000e+001 1.000000e+001
      vertex   -1.650000e+002 4.500000e+001 1.000000e+001
      vertex   -1.650000e+002 5.500000e+001 1.000000e+001
    endloop
  endfacet
  facet normal -0.000000e+000 0.000000e+000 1.000000e+000
    outer loop
      vertex   -1.750000e+002 6.000000e+001 1.000000e+001
      vertex   -1.750000e+002 4.000000e+001 1.000000e+001
      vertex   -1.650000e+002 5.500000e+001 1.000000e+001
    endloop
  endfacet
  facet normal 0.000000e+000 0.000000e+000 1.000000e+000
    outer loop
      vertex   -1.450000e+002 4.000000e+001 1.000000e+001
      vertex   -1.650000e+002 4.500000e+001 1.000000e+001
      vertex   -1.750000e+002 4.000000e+001 1.000000e+001
    endloop
  endfacet
  facet normal -0.000000e+000 -1.000000e+000 0.000000e+000
    outer loop
      vertex   -1.450000e+002 4.000000e+001 0.000000e+000
      vertex   -1.450000e+002 4.000000e+001 1.000000e+001
      vertex   -1.750000e+002 4.000000e+001 0.000000e+000
    endloop
  endfacet
  facet normal 0.000000e+000 -1.000000e+000 0.000000e+000
    outer loop
      vertex   -1.750000e+002 4.000000e+001 0.000000e+000
      vertex   -1.450000e+002 4.000000e+001 1.000000e+001
      vertex   -1.750000e+002 4.000000e+001 1.000000e+001
    endloop
  endfacet
  facet normal -0.000000e+000 1.000000e+000 0.000000e+000
    outer loop
      vertex   -1.750000e+002 6.000000e+001 0.000000e+000
      vertex   -1.750000e+002 6.000000e+001 1.000000e+001
      vertex   -1.450000e+002 6.000000e+001 0.000000e+000
    endloop
  endfacet
  facet normal 0.000000e+000 1.000000e+000 -0.000000e+000
    outer loop
      vertex   -1.450000e+002 6.000000e+001 0.000000e+000
      vertex   -1.750000e+002 6.000000e+001 1.000000e+001
      vertex   -1.450000e+002 6.000000e+001 1.000000e+001
    endloop
  endfacet
  facet normal -1.000000e+000 0.000000e+000 0.000000e+000
    outer loop
      vertex   -1.750000e+002 4.000000e+001 0.000000e+000
      vertex   -1.750000e+002 4.000000e+001 1.000000e+001
      vertex   -1.750000e+002 6.000000e+001 0.000000e+000
    endloop
  endfacet
  facet normal -1.000000e+000 0.000000e+000 0.000000e+000
    outer loop
      vertex   -1.750000e+002 6.000000e+001 0.000000e+000
      vertex   -1.750000e+002 4.000000e+001 1.000000e+001
      vertex   -1.750000e+002 6.000000e+001 1.000000e+001
    endloop
  endfacet
  facet normal 0.000000e+000 1.000000e+000 0.000000e+000
    outer loop
      vertex   -5.000000e+000 4.500000e+001 1.000000e+001
      vertex   -5.000000e+000 4.500000e+001 0.000000e+000
      vertex   -1.500000e+001 4.500000e+001 1.000000e+001
    endloop
  endfacet
  facet normal 0.000000e+000 1.000000e+000 0.000000e+000
    outer loop
      vertex   -1.500000e+001 4.500000e+001 1.000000e+001
      vertex   -5.000000e+000 4.500000e+001 0.000000e+000
      vertex   -1.500000e+001 4.500000e+001 0.000000e+000
    endloop
  endfacet
  facet normal 1.000000e+000 -0.000000e+000 0.000000e+000
    outer loop
      vertex   -1.500000e+001 4.500000e+001 1.000000e+001
      vertex   -1.500000e+001 4.500000e+001 0.000000e+000
      vertex   -1.500000e+001 5.500000e+001 1.000000e+001
    endloop
  endfacet
  facet normal 1.000000e+000 -0.000000e+000 0.000000e+000
    outer loop
      vertex   -1.500000e+001 5.500000e+001 1.000000e+001
      vertex   -1.500000e+001 4.500000e+001 0.000000e+000
      vertex   -1.500000e+001 5.500000e+001 0.000000e+000
    endloop
  endfacet
  facet normal 0.000000e+000 -1.000000e+000 0.000000e+000
    outer loop
      vertex   -1.500000e+001 5.500000e+001 1.000000e+001
      vertex   -1.500000e+001 5.500000e+001 0.000000e+000
      vertex   -5.000000e+000 5.500000e+001 1.000000e+001
    endloop
  endfacet
  facet normal 0.000000e+000 -1.000000e+000 -0.000000e+000
    outer loop
      vertex   -5.000000e+000 5.500000e+001 1.000000e+001
      vertex   -1.500000e+001 5.500000e+001 0.000000e+000
      vertex   -5.000000e+000 5.500000e+001 0.000000e+000
    endloop
  endfacet
  facet normal -1.000000e+000 -0.000000e+000 -0.000000e+000
    outer loop
      vertex   -5.000000e+000 5.500000e+001 1.000000e+001
      vertex   -5.000000e+000 5.500000e+001 0.000000e+000
      vertex   -5.000000e+000 4.500000e+001 1.000000e+001
    endloop
  endfacet
  facet normal -1.000000e+000 -0.000000e+000 -0.000000e+000
    outer loop
      vertex   -5.000000e+000 4.500000e+001 1.000000e+001
      vertex   -5.000000e+000 5.500000e+001 0.000000e+000
      vertex   -5.000000e+000 4.500000e+001 0.000000e+000
    endloop
  endfacet
  facet normal 0.000000e+000 0.000000e+000 1.000000e+000
    outer loop
      vertex   -5.000000e+000 5.500000e+001 1.000000e+001
      vertex   -2.500000e+001 6.000000e+001 1.000000e+001
      vertex   -1.500000e+001 5.500000e+001 1.000000e+001
    endloop
  endfacet
  facet normal 0.000000e+000 -0.000000e+000 1.000000e+000
    outer loop
      vertex   -5.000000e+000 5.500000e+001 1.000000e+001
      vertex   5.000000e+000 6.000000e+001 1.000000e+001
      vertex   -2.500000e+001 6.000000e+001 1.000000e+001
    endloop
  endfacet
  facet normal -0.000000e+000 0.000000e+000 1.000000e+000
    outer loop
      vertex   -5.000000e+000 5.500000e+001 1.000000e+001
      vertex   5.000000e+000 4.000000e+001 1.000000e+001
      vertex   5.000000e+000 6.000000e+001 1.000000e+001
    endloop
  endfacet
  facet normal 0.000000e+000 0.000000e+000 1.000000e+000
    outer loop
      vertex   -5.000000e+000 5.500000e+001 1.000000e+001
      vertex   -5.000000e+000 4.500000e+001 1.000000e+001
      vertex   5.000000e+000 4.000000e+001 1.000000e+001
    endloop
  endfacet
  facet normal 0.000000e+000 0.000000e+000 1.000000e+000
    outer loop
      vertex   5.000000e+000 4.000000e+001 1.000000e+001
      vertex   -5.000000e+000 4.500000e+001 1.000000e+001
      vertex   -1.500000e+001 4.500000e+001 1.000000e+001
    endloop
  endfacet
  facet normal 0.000000e+000 0.000000e+000 1.000000e+000
    outer loop
      vertex   -2.500000e+001 4.000000e+001 1.000000e+001
      vertex   -1.500000e+001 4.500000e+001 1.000000e+001
      vertex   -1.500000e+001 5.500000e+001 1.000000e+001
    endloop
  endfacet
  facet normal -0.000000e+000 0.000000e+000 1.000000e+000
    outer loop
      vertex   -2.500000e+001 6.000000e+001 1.000000e+001
      vertex   -2.500000e+001 4.000000e+001 1.000000e+001
      vertex   -1.500000e+001 5.500000e+001 1.000000e+001
    endloop
  endfacet
  facet normal 0.000000e+000 0.000000e+000 1.000000e+000
    outer loop
      vertex   5.000000e+000 4.000000e+001 1.000000e+001
      vertex   -1.500000e+001 4.500000e+001 1.000000e+001
      vertex   -2.500000e+001 4.000000e+001 1.000000e+001
    endloop
  endfacet
  facet normal 0.000000e+000 -1.000000e+000 0.000000e+000
    outer loop
      vertex   -2.500000e+001 4.000000e+001 1.000000e+001
      vertex   -2.500000e+001 4.000000e+001 0.000000e+000
      vertex   5.000000e+000 4.000000e+001 1.000000e+001
    endloop
  endfacet
  facet normal 0.000000e+000 -1.000000e+000 -0.000000e+000
    outer loop
      vertex   5.000000e+000 4.000000e+001 1.000000e+001
      vertex   -2.500000e+001 4.000000e+001 0.000000e+000
      vertex   5.000000e+000 4.000000e+001 0.000000e+000
    endloop
  endfacet
  facet normal 0.000000e+000 1.000000e+000 0.000000e+000
    outer loop
      vertex   5.000000e+000 6.000000e+001 1.000000e+001
      vertex   5.000000e+000 6.000000e+001 0.000000e+000
      vertex   -2.500000e+001 6.000000e+001 1.000000e+001
    endloop
  endfacet
  facet normal 0.000000e+000 1.000000e+000 0.000000e+000
    outer loop
      vertex   -2.500000e+001 6.000000e+001 1.000000e+001
      vertex   5.000000e+000 6.000000e+001 0.000000e+000
      vertex   -2.500000e+001 6.000000e+001 0.000000e+000
    endloop
  endfacet
  facet normal 1.000000e+000 -0.000000e+000 0.000000e+000
    outer loop
      vertex   5.000000e+000 4.000000e+001 1.000000e+001
      vertex   5.000000e+000 4.000000e+001 0.000000e+000
      vertex   5.000000e+000 6.000000e+001 1.000000e+001
    endloop
  endfacet
  facet normal 1.000000e+000 -0.000000e+000 0.000000e+000
    outer loop
      vertex   5.000000e+000 6.000000e+001 1.000000e+001
      vertex   5.000000e+000 4.000000e+001 0.000000e+000
      vertex   5.000000e+000 6.000000e+001 0.000000e+000
    endloop
  endfacet
  facet normal 1.000000e+000 0.000000e+000 -0.000000e+000
    outer loop
      vertex   -2.500000e+001 4.000000e+001 0.000000e+000
      vertex   -2.500000e+001 4.000000e+001 1.000000e+001
      vertex   -2.500000e+001 2.500000e+001 0.000000e+000
    endloop
  endfacet
  facet normal 1.000000e+000 0.000000e+000 -0.000000e+000
    outer loop
      vertex   -2.500000e+001 2.500000e+001 0.000000e+000
      vertex   -2.500000e+001 4.000000e+001 1.000000e+001
      vertex   -2.500000e+001 2.500000e+001 5.000000e+001
    endloop
  endfacet
  facet normal 1.000000e+000 -0.000000e+000 0.000000e+000
    outer loop
      vertex   -2.500000e+001 2.500000e+001 5.000000e+001
      vertex   -2.500000e+001 4.000000e+001 1.000000e+001
      vertex   -2.500000e+001 6.000000e+001 1.000000e+001
    endloop
  endfacet
  facet normal 1.000000e+000 0.000000e+000 0.000000e+000
    outer loop
      vertex   -2.500000e+001 7.500000e+001 5.000000e+001
      vertex   -2.500000e+001 6.000000e+001 1.000000e+001
      vertex   -2.500000e+001 7.500000e+001 0.000000e+000
    endloop
  endfacet
  facet normal 1.000000e+000 0.000000e+000 0.000000e+000
    outer loop
      vertex   -2.500000e+001 7.500000e+001 5.000000e+001
      vertex   -2.500000e+001 2.500000e+001 5.000000e+001
      vertex   -2.500000e+001 6.000000e+001 1.000000e+001
    endloop
  endfacet
  facet normal 1.000000e+000 -0.000000e+000 0.000000e+000
    outer loop
      vertex   -2.500000e+001 6.000000e+001 1.000000e+001
      vertex   -2.500000e+001 6.000000e+001 0.000000e+000
      vertex   -2.500000e+001 7.500000e+001 0.000000e+000
    endloop
  endfacet
  facet normal -0.000000e+000 -1.000000e+000 0.000000e+000
    outer loop
      vertex   -4.500000e+001 6.000000e+001 0.000000e+000
      vertex   -4.500000e+001 6.000000e+001 3.000000e+000
      vertex   -8.500000e+001 6.000000e+001 0.000000e+000
    endloop
  endfacet
  facet normal 0.000000e+000 -1.000000e+000 0.000000e+000
    outer loop
      vertex   -8.500000e+001 6.000000e+001 0.000000e+000
      vertex   -4.500000e+001 6.000000e+001 3.000000e+000
      vertex   -8.500000e+001 6.000000e+001 3.000000e+000
    endloop
  endfacet
  facet normal 0.000000e+000 -1.000000e+000 0.000000e+000
    outer loop
      vertex   -1.250000e+002 6.000000e+001 0.000000e+000
      vertex   -8.500000e+001 6.000000e+001 3.000000e+000
      vertex   -1.250000e+002 6.000000e+001 3.000000e+000
    endloop
  endfacet
  facet normal 0.000000e+000 -1.000000e+000 0.000000e+000
    outer loop
      vertex   -1.250000e+002 6.000000e+001 0.000000e+000
      vertex   -8.500000e+001 6.000000e+001 0.000000e+000
      vertex   -8.500000e+001 6.000000e+001 3.000000e+000
    endloop
  endfacet
  facet normal -1.000000e+000 -0.000000e+000 -0.000000e+000
    outer loop
      vertex   -4.500000e+001 6.000000e+001 3.000000e+000
      vertex   -4.500000e+001 6.000000e+001 0.000000e+000
      vertex   -4.500000e+001 4.000000e+001 3.000000e+000
    endloop
  endfacet
  facet normal -1.000000e+000 -0.000000e+000 -0.000000e+000
    outer loop
      vertex   -4.500000e+001 4.000000e+001 3.000000e+000
      vertex   -4.500000e+001 6.000000e+001 0.000000e+000
      vertex   -4.500000e+001 4.000000e+001 0.000000e+000
    endloop
  endfacet
  facet normal -0.000000e+000 1.000000e+000 0.000000e+000
    outer loop
      vertex   -1.250000e+002 4.000000e+001 0.000000e+000
      vertex   -1.250000e+002 4.000000e+001 3.000000e+000
      vertex   -8.500000e+001 4.000000e+001 0.000000e+000
    endloop
  endfacet
  facet normal 0.000000e+000 1.000000e+000 -0.000000e+000
    outer loop
      vertex   -8.500000e+001 4.000000e+001 0.000000e+000
      vertex   -1.250000e+002 4.000000e+001 3.000000e+000
      vertex   -8.500000e+001 4.000000e+001 3.000000e+000
    endloop
  endfacet
  facet normal 0.000000e+000 1.000000e+000 -0.000000e+000
    outer loop
      vertex   -4.500000e+001 4.000000e+001 0.000000e+000
      vertex   -8.500000e+001 4.000000e+001 3.000000e+000
      vertex   -4.500000e+001 4.000000e+001 3.000000e+000
    endloop
  endfacet
  facet normal 0.000000e+000 1.000000e+000 -0.000000e+000
    outer loop
      vertex   -4.500000e+001 4.000000e+001 0.000000e+000
      vertex   -8.500000e+001 4.000000e+001 0.000000e+000
      vertex   -8.500000e+001 4.000000e+001 3.000000e+000
    endloop
  endfacet
  facet normal 1.000000e+000 -0.000000e+000 0.000000e+000
    outer loop
      vertex   -1.250000e+002 4.000000e+001 3.000000e+000
      vertex   -1.250000e+002 4.000000e+001 0.000000e+000
      vertex   -1.250000e+002 6.000000e+001 3.000000e+000
    endloop
  endfacet
  facet normal 1.000000e+000 -0.000000e+000 0.000000e+000
    outer loop
      vertex   -1.250000e+002 6.000000e+001 3.000000e+000
      vertex   -1.250000e+002 4.000000e+001 0.000000e+000
      vertex   -1.250000e+002 6.000000e+001 0.000000e+000
    endloop
  endfacet
  facet normal 1.000000e+000 -0.000000e+000 0.000000e+000
    outer loop
      vertex   -1.399076e+002 7.000000e+001 5.000000e+001
      vertex   -1.399076e+002 7.000000e+001 8.000000e+000
      vertex   -1.399076e+002 7.500000e+001 5.000000e+001
    endloop
  endfacet
  facet normal 1.000000e+000 -0.000000e+000 0.000000e+000
    outer loop
      vertex   -1.399076e+002 7.500000e+001 5.000000e+001
      vertex   -1.399076e+002 7.000000e+001 8.000000e+000
      vertex   -1.399076e+002 7.500000e+001 8.000000e+000
    endloop
  endfacet
  facet normal -0.000000e+000 0.000000e+000 1.000000e+000
    outer loop
      vertex   -8.495381e+001 3.000000e+001 8.000000e+000
      vertex   -8.490762e+001 2.500000e+001 8.000000e+000
      vertex   -3.000000e+001 3.000000e+001 8.000000e+000
    endloop
  endfacet
  facet normal -0.000000e+000 0.000000e+000 1.000000e+000
    outer loop
      vertex   -8.495381e+001 3.000000e+001 8.000000e+000
      vertex   -1.399076e+002 2.500000e+001 8.000000e+000
      vertex   -8.490762e+001 2.500000e+001 8.000000e+000
    endloop
  endfacet
  facet normal 0.000000e+000 0.000000e+000 1.000000e+000
    outer loop
      vertex   -8.495381e+001 3.000000e+001 8.000000e+000
      vertex   -1.399076e+002 3.000000e+001 8.000000e+000
      vertex   -1.399076e+002 2.500000e+001 8.000000e+000
    endloop
  endfacet
  facet normal 0.000000e+000 -0.000000e+000 1.000000e+000
    outer loop
      vertex   -8.490762e+001 2.500000e+001 8.000000e+000
      vertex   -2.990762e+001 2.500000e+001 8.000000e+000
      vertex   -3.000000e+001 3.000000e+001 8.000000e+000
    endloop
  endfacet
  facet normal -0.000000e+000 -0.000000e+000 1.000000e+000
    outer loop
      vertex   -3.000000e+001 3.000000e+001 8.000000e+000
      vertex   -2.990762e+001 2.500000e+001 8.000000e+000
      vertex   -3.000000e+001 7.000000e+001 8.000000e+000
    endloop
  endfacet
  facet normal -0.000000e+000 0.000000e+000 1.000000e+000
    outer loop
      vertex   -3.000000e+001 7.000000e+001 8.000000e+000
      vertex   -2.990762e+001 2.500000e+001 8.000000e+000
      vertex   -2.990762e+001 7.500000e+001 8.000000e+000
    endloop
  endfacet
  facet normal -0.000000e+000 0.000000e+000 1.000000e+000
    outer loop
      vertex   -8.490762e+001 7.500000e+001 8.000000e+000
      vertex   -3.000000e+001 7.000000e+001 8.000000e+000
      vertex   -2.990762e+001 7.500000e+001 8.000000e+000
    endloop
  endfacet
  facet normal -0.000000e+000 0.000000e+000 1.000000e+000
    outer loop
      vertex   -8.490762e+001 7.500000e+001 8.000000e+000
      vertex   -8.495381e+001 7.000000e+001 8.000000e+000
      vertex   -3.000000e+001 7.000000e+001 8.000000e+000
    endloop
  endfacet
  facet normal 0.000000e+000 0.000000e+000 1.000000e+000
    outer loop
      vertex   -8.490762e+001 7.500000e+001 8.000000e+000
      vertex   -1.399076e+002 7.500000e+001 8.000000e+000
      vertex   -8.495381e+001 7.000000e+001 8.000000e+000
    endloop
  endfacet
  facet normal 0.000000e+000 0.000000e+000 1.000000e+000
    outer loop
      vertex   -8.495381e+001 7.000000e+001 8.000000e+000
      vertex   -1.399076e+002 7.500000e+001 8.000000e+000
      vertex   -1.399076e+002 7.000000e+001 8.000000e+000
    endloop
  endfacet
  facet normal 1.000000e+000 0.000000e+000 -0.000000e+000
    outer loop
      vertex   -1.399076e+002 3.000000e+001 8.000000e+000
      vertex   -1.399076e+002 3.000000e+001 5.000000e+001
      vertex   -1.399076e+002 2.500000e+001 8.000000e+000
    endloop
  endfacet
  facet normal 1.000000e+000 0.000000e+000 -0.000000e+000
    outer loop
      vertex   -1.399076e+002 2.500000e+001 8.000000e+000
      vertex   -1.399076e+002 3.000000e+001 5.000000e+001
      vertex   -1.399076e+002 2.500000e+001 5.000000e+001
    endloop
  endfacet
  facet normal -1.000000e+000 0.000000e+000 0.000000e+000
    outer loop
      vertex   -2.990762e+001 2.500000e+001 8.000000e+000
      vertex   -2.990762e+001 2.500000e+001 5.000000e+001
      vertex   -2.990762e+001 7.500000e+001 8.000000e+000
    endloop
  endfacet
  facet normal -1.000000e+000 0.000000e+000 0.000000e+000
    outer loop
      vertex   -2.990762e+001 7.500000e+001 8.000000e+000
      vertex   -2.990762e+001 2.500000e+001 5.000000e+001
      vertex   -2.990762e+001 7.500000e+001 5.000000e+001
    endloop
  endfacet
  facet normal -1.000000e+000 -0.000000e+000 -0.000000e+000
    outer loop
      vertex   -3.000000e+001 7.000000e+001 8.000000e+000
      vertex   -3.000000e+001 7.000000e+001 3.000000e+000
      vertex   -3.000000e+001 3.000000e+001 8.000000e+000
    endloop
  endfacet
  facet normal -1.000000e+000 -0.000000e+000 -0.000000e+000
    outer loop
      vertex   -3.000000e+001 3.000000e+001 8.000000e+000
      vertex   -3.000000e+001 7.000000e+001 3.000000e+000
      vertex   -3.000000e+001 3.000000e+001 3.000000e+000
    endloop
  endfacet
  facet normal -0.000000e+000 -1.000000e+000 -0.000000e+000
    outer loop
      vertex   -3.000000e+001 7.000000e+001 8.000000e+000
      vertex   -8.495381e+001 7.000000e+001 8.000000e+000
      vertex   -3.000000e+001 7.000000e+001 3.000000e+000
    endloop
  endfacet
  facet normal -0.000000e+000 -1.000000e+000 0.000000e+000
    outer loop
      vertex   -3.000000e+001 7.000000e+001 3.000000e+000
      vertex   -8.495381e+001 7.000000e+001 8.000000e+000
      vertex   -8.500000e+001 7.000000e+001 3.000000e+000
    endloop
  endfacet
  facet normal 0.000000e+000 -1.000000e+000 0.000000e+000
    outer loop
      vertex   -8.500000e+001 7.000000e+001 3.000000e+000
      vertex   -8.495381e+001 7.000000e+001 8.000000e+000
      vertex   -1.399076e+002 7.000000e+001 8.000000e+000
    endloop
  endfacet
  facet normal 0.000000e+000 -1.000000e+000 0.000000e+000
    outer loop
      vertex   -1.400000e+002 7.000000e+001 3.000000e+000
      vertex   -1.399076e+002 7.000000e+001 8.000000e+000
      vertex   -1.400000e+002 7.000000e+001 5.000000e+001
    endloop
  endfacet
  facet normal 0.000000e+000 -1.000000e+000 0.000000e+000
    outer loop
      vertex   -1.400000e+002 7.000000e+001 3.000000e+000
      vertex   -8.500000e+001 7.000000e+001 3.000000e+000
      vertex   -1.399076e+002 7.000000e+001 8.000000e+000
    endloop
  endfacet
  facet normal 0.000000e+000 -1.000000e+000 0.000000e+000
    outer loop
      vertex   -1.399076e+002 7.000000e+001 8.000000e+000
      vertex   -1.399076e+002 7.000000e+001 5.000000e+001
      vertex   -1.400000e+002 7.000000e+001 5.000000e+001
    endloop
  endfacet
  facet normal 0.000000e+000 1.000000e+000 0.000000e+000
    outer loop
      vertex   -1.399076e+002 7.500000e+001 5.000000e+001
      vertex   -1.399076e+002 7.500000e+001 8.000000e+000
      vertex   -1.450000e+002 7.500000e+001 5.000000e+001
    endloop
  endfacet
  facet normal 0.000000e+000 1.000000e+000 0.000000e+000
    outer loop
      vertex   -1.450000e+002 7.500000e+001 5.000000e+001
      vertex   -1.399076e+002 7.500000e+001 8.000000e+000
      vertex   -1.450000e+002 7.500000e+001 0.000000e+000
    endloop
  endfacet
  facet normal -0.000000e+000 1.000000e+000 0.000000e+000
    outer loop
      vertex   -1.450000e+002 7.500000e+001 0.000000e+000
      vertex   -1.399076e+002 7.500000e+001 8.000000e+000
      vertex   -1.050000e+002 7.500000e+001 0.000000e+000
    endloop
  endfacet
  facet normal 0.000000e+000 1.000000e+000 -0.000000e+000
    outer loop
      vertex   -1.050000e+002 7.500000e+001 0.000000e+000
      vertex   -1.399076e+002 7.500000e+001 8.000000e+000
      vertex   -8.490762e+001 7.500000e+001 8.000000e+000
    endloop
  endfacet
  facet normal 0.000000e+000 1.000000e+000 -0.000000e+000
    outer loop
      vertex   -6.500000e+001 7.500000e+001 0.000000e+000
      vertex   -8.490762e+001 7.500000e+001 8.000000e+000
      vertex   -2.990762e+001 7.500000e+001 8.000000e+000
    endloop
  endfacet
  facet normal 0.000000e+000 1.000000e+000 -0.000000e+000
    outer loop
      vertex   -2.500000e+001 7.500000e+001 0.000000e+000
      vertex   -2.990762e+001 7.500000e+001 8.000000e+000
      vertex   -2.500000e+001 7.500000e+001 5.000000e+001
    endloop
  endfacet
  facet normal 0.000000e+000 1.000000e+000 -0.000000e+000
    outer loop
      vertex   -2.500000e+001 7.500000e+001 0.000000e+000
      vertex   -6.500000e+001 7.500000e+001 0.000000e+000
      vertex   -2.990762e+001 7.500000e+001 8.000000e+000
    endloop
  endfacet
  facet normal -0.000000e+000 1.000000e+000 0.000000e+000
    outer loop
      vertex   -1.050000e+002 7.500000e+001 0.000000e+000
      vertex   -8.490762e+001 7.500000e+001 8.000000e+000
      vertex   -6.500000e+001 7.500000e+001 0.000000e+000
    endloop
  endfacet
  facet normal 0.000000e+000 1.000000e+000 0.000000e+000
    outer loop
      vertex   -2.990762e+001 7.500000e+001 8.000000e+000
      vertex   -2.990762e+001 7.500000e+001 5.000000e+001
      vertex   -2.500000e+001 7.500000e+001 5.000000e+001
    endloop
  endfacet
  facet normal 0.000000e+000 -0.000000e+000 1.000000e+000
    outer loop
      vertex   -2.990762e+001 2.500000e+001 5.000000e+001
      vertex   -2.500000e+001 2.500000e+001 5.000000e+001
      vertex   -2.990762e+001 7.500000e+001 5.000000e+001
    endloop
  endfacet
  facet normal -0.000000e+000 0.000000e+000 1.000000e+000
    outer loop
      vertex   -2.990762e+001 7.500000e+001 5.000000e+001
      vertex   -2.500000e+001 2.500000e+001 5.000000e+001
      vertex   -2.500000e+001 7.500000e+001 5.000000e+001
    endloop
  endfacet
  facet normal -0.000000e+000 0.000000e+000 1.000000e+000
    outer loop
      vertex   -8.500000e+001 4.000000e+001 3.000000e+000
      vertex   -8.500000e+001 3.000000e+001 3.000000e+000
      vertex   -4.500000e+001 4.000000e+001 3.000000e+000
    endloop
  endfacet
  facet normal 0.000000e+000 0.000000e+000 1.000000e+000
    outer loop
      vertex   -8.500000e+001 4.000000e+001 3.000000e+000
      vertex   -1.250000e+002 4.000000e+001 3.000000e+000
      vertex   -8.500000e+001 3.000000e+001 3.000000e+000
    endloop
  endfacet
  facet normal 0.000000e+000 0.000000e+000 1.000000e+000
    outer loop
      vertex   -8.500000e+001 3.000000e+001 3.000000e+000
      vertex   -1.250000e+002 4.000000e+001 3.000000e+000
      vertex   -1.400000e+002 3.000000e+001 3.000000e+000
    endloop
  endfacet
  facet normal 0.000000e+000 0.000000e+000 1.000000e+000
    outer loop
      vertex   -1.400000e+002 3.000000e+001 3.000000e+000
      vertex   -1.250000e+002 4.000000e+001 3.000000e+000
      vertex   -1.250000e+002 6.000000e+001 3.000000e+000
    endloop
  endfacet
  facet normal -0.000000e+000 0.000000e+000 1.000000e+000
    outer loop
      vertex   -1.400000e+002 7.000000e+001 3.000000e+000
      vertex   -1.250000e+002 6.000000e+001 3.000000e+000
      vertex   -8.500000e+001 7.000000e+001 3.000000e+000
    endloop
  endfacet
  facet normal -0.000000e+000 0.000000e+000 1.000000e+000
    outer loop
      vertex   -1.400000e+002 7.000000e+001 3.000000e+000
      vertex   -1.400000e+002 3.000000e+001 3.000000e+000
      vertex   -1.250000e+002 6.000000e+001 3.000000e+000
    endloop
  endfacet
  facet normal 0.000000e+000 0.000000e+000 1.000000e+000
    outer loop
      vertex   -1.250000e+002 6.000000e+001 3.000000e+000
      vertex   -8.500000e+001 6.000000e+001 3.000000e+000
      vertex   -8.500000e+001 7.000000e+001 3.000000e+000
    endloop
  endfacet
  facet normal -0.000000e+000 0.000000e+000 1.000000e+000
    outer loop
      vertex   -8.500000e+001 7.000000e+001 3.000000e+000
      vertex   -8.500000e+001 6.000000e+001 3.000000e+000
      vertex   -4.500000e+001 6.000000e+001 3.000000e+000
    endloop
  endfacet
  facet normal 0.000000e+000 0.000000e+000 1.000000e+000
    outer loop
      vertex   -3.000000e+001 7.000000e+001 3.000000e+000
      vertex   -4.500000e+001 6.000000e+001 3.000000e+000
      vertex   -3.000000e+001 3.000000e+001 3.000000e+000
    endloop
  endfacet
  facet normal 0.000000e+000 0.000000e+000 1.000000e+000
    outer loop
      vertex   -3.000000e+001 7.000000e+001 3.000000e+000
      vertex   -8.500000e+001 7.000000e+001 3.000000e+000
      vertex   -4.500000e+001 6.000000e+001 3.000000e+000
    endloop
  endfacet
  facet normal 0.000000e+000 0.000000e+000 1.000000e+000
    outer loop
      vertex   -4.500000e+001 6.000000e+001 3.000000e+000
      vertex   -4.500000e+001 4.000000e+001 3.000000e+000
      vertex   -3.000000e+001 3.000000e+001 3.000000e+000
    endloop
  endfacet
  facet normal 0.000000e+000 0.000000e+000 1.000000e+000
    outer loop
      vertex   -3.000000e+001 3.000000e+001 3.000000e+000
      vertex   -4.500000e+001 4.000000e+001 3.000000e+000
      vertex   -8.500000e+001 3.000000e+001 3.000000e+000
    endloop
  endfacet
  facet normal 0.000000e+000 1.000000e+000 0.000000e+000
    outer loop
      vertex   -8.495381e+001 3.000000e+001 8.000000e+000
      vertex   -8.500000e+001 3.000000e+001 3.000000e+000
      vertex   -1.399076e+002 3.000000e+001 8.000000e+000
    endloop
  endfacet
  facet normal 0.000000e+000 1.000000e+000 0.000000e+000
    outer loop
      vertex   -8.495381e+001 3.000000e+001 8.000000e+000
      vertex   -3.000000e+001 3.000000e+001 3.000000e+000
      vertex   -8.500000e+001 3.000000e+001 3.000000e+000
    endloop
  endfacet
  facet normal -0.000000e+000 1.000000e+000 0.000000e+000
    outer loop
      vertex   -8.495381e+001 3.000000e+001 8.000000e+000
      vertex   -3.000000e+001 3.000000e+001 8.000000e+000
      vertex   -3.000000e+001 3.000000e+001 3.000000e+000
    endloop
  endfacet
  facet normal 0.000000e+000 1.000000e+000 -0.000000e+000
    outer loop
      vertex   -8.500000e+001 3.000000e+001 3.000000e+000
      vertex   -1.400000e+002 3.000000e+001 3.000000e+000
      vertex   -1.399076e+002 3.000000e+001 8.000000e+000
    endloop
  endfacet
  facet normal 0.000000e+000 1.000000e+000 -0.000000e+000
    outer loop
      vertex   -1.399076e+002 3.000000e+001 8.000000e+000
      vertex   -1.400000e+002 3.000000e+001 3.000000e+000
      vertex   -1.400000e+002 3.000000e+001 5.000000e+001
    endloop
  endfacet
  facet normal 0.000000e+000 1.000000e+000 0.000000e+000
    outer loop
      vertex   -1.399076e+002 3.000000e+001 5.000000e+001
      vertex   -1.399076e+002 3.000000e+001 8.000000e+000
      vertex   -1.400000e+002 3.000000e+001 5.000000e+001
    endloop
  endfacet
  facet normal 1.000000e+000 -0.000000e+000 0.000000e+000
    outer loop
      vertex   -1.400000e+002 3.000000e+001 5.000000e+001
      vertex   -1.400000e+002 3.000000e+001 3.000000e+000
      vertex   -1.400000e+002 7.000000e+001 5.000000e+001
    endloop
  endfacet
  facet normal 1.000000e+000 -0.000000e+000 0.000000e+000
    outer loop
      vertex   -1.400000e+002 7.000000e+001 5.000000e+001
      vertex   -1.400000e+002 3.000000e+001 3.000000e+000
      vertex   -1.400000e+002 7.000000e+001 3.000000e+000
    endloop
  endfacet
  facet normal 0.000000e+000 0.000000e+000 1.000000e+000
    outer loop
      vertex   -1.399076e+002 3.000000e+001 5.000000e+001
      vertex   -1.400000e+002 3.000000e+001 5.000000e+001
      vertex   -1.399076e+002 2.500000e+001 5.000000e+001
    endloop
  endfacet
  facet normal 0.000000e+000 0.000000e+000 1.000000e+000
    outer loop
      vertex   -1.399076e+002 2.500000e+001 5.000000e+001
      vertex   -1.400000e+002 3.000000e+001 5.000000e+001
      vertex   -1.450000e+002 2.500000e+001 5.000000e+001
    endloop
  endfacet
  facet normal 0.000000e+000 0.000000e+000 1.000000e+000
    outer loop
      vertex   -1.450000e+002 2.500000e+001 5.000000e+001
      vertex   -1.400000e+002 3.000000e+001 5.000000e+001
      vertex   -1.400000e+002 7.000000e+001 5.000000e+001
    endloop
  endfacet
  facet normal -0.000000e+000 0.000000e+000 1.000000e+000
    outer loop
      vertex   -1.450000e+002 7.500000e+001 5.000000e+001
      vertex   -1.400000e+002 7.000000e+001 5.000000e+001
      vertex   -1.399076e+002 7.500000e+001 5.000000e+001
    endloop
  endfacet
  facet normal -0.000000e+000 0.000000e+000 1.000000e+000
    outer loop
      vertex   -1.450000e+002 7.500000e+001 5.000000e+001
      vertex   -1.450000e+002 2.500000e+001 5.000000e+001
      vertex   -1.400000e+002 7.000000e+001 5.000000e+001
    endloop
  endfacet
  facet normal 0.000000e+000 0.000000e+000 1.000000e+000
    outer loop
      vertex   -1.400000e+002 7.000000e+001 5.000000e+001
      vertex   -1.399076e+002 7.000000e+001 5.000000e+001
      vertex   -1.399076e+002 7.500000e+001 5.000000e+001
    endloop
  endfacet
  facet normal 0.000000e+000 -0.000000e+000 -1.000000e+000
    outer loop
      vertex   -1.650000e+002 5.500000e+001 0.000000e+000
      vertex   -1.450000e+002 6.000000e+001 0.000000e+000
      vertex   -1.550000e+002 5.500000e+001 0.000000e+000
    endloop
  endfacet
  facet normal 0.000000e+000 0.000000e+000 -1.000000e+000
    outer loop
      vertex   -1.650000e+002 5.500000e+001 0.000000e+000
      vertex   -1.750000e+002 6.000000e+001 0.000000e+000
      vertex   -1.450000e+002 6.000000e+001 0.000000e+000
    endloop
  endfacet
  facet normal -0.000000e+000 0.000000e+000 -1.000000e+000
    outer loop
      vertex   -1.650000e+002 5.500000e+001 0.000000e+000
      vertex   -1.750000e+002 4.000000e+001 0.000000e+000
      vertex   -1.750000e+002 6.000000e+001 0.000000e+000
    endloop
  endfacet
  facet normal 0.000000e+000 -0.000000e+000 -1.000000e+000
    outer loop
      vertex   -1.650000e+002 5.500000e+001 0.000000e+000
      vertex   -1.650000e+002 4.500000e+001 0.000000e+000
      vertex   -1.750000e+002 4.000000e+001 0.000000e+000
    endloop
  endfacet
  facet normal 0.000000e+000 0.000000e+000 -1.000000e+000
    outer loop
      vertex   -1.750000e+002 4.000000e+001 0.000000e+000
      vertex   -1.650000e+002 4.500000e+001 0.000000e+000
      vertex   -1.550000e+002 4.500000e+001 0.000000e+000
    endloop
  endfacet
  facet normal 0.000000e+000 0.000000e+000 -1.000000e+000
    outer loop
      vertex   -1.450000e+002 4.000000e+001 0.000000e+000
      vertex   -1.550000e+002 4.500000e+001 0.000000e+000
      vertex   -1.550000e+002 5.500000e+001 0.000000e+000
    endloop
  endfacet
  facet normal -0.000000e+000 -0.000000e+000 -1.000000e+000
    outer loop
      vertex   -1.450000e+002 6.000000e+001 0.000000e+000
      vertex   -1.450000e+002 4.000000e+001 0.000000e+000
      vertex   -1.550000e+002 5.500000e+001 0.000000e+000
    endloop
  endfacet
  facet normal 0.000000e+000 -0.000000e+000 -1.000000e+000
    outer loop
      vertex   -1.450000e+002 6.000000e+001 0.000000e+000
      vertex   -1.300000e+002 6.000000e+001 0.000000e+000
      vertex   -1.450000e+002 4.000000e+001 0.000000e+000
    endloop
  endfacet
  facet normal 0.000000e+000 0.000000e+000 -1.000000e+000
    outer loop
      vertex   -1.450000e+002 6.000000e+001 0.000000e+000
      vertex   -1.450000e+002 7.500000e+001 0.000000e+000
      vertex   -1.300000e+002 6.000000e+001 0.000000e+000
    endloop
  endfacet
  facet normal 0.000000e+000 0.000000e+000 -1.000000e+000
    outer loop
      vertex   -1.300000e+002 6.000000e+001 0.000000e+000
      vertex   -1.450000e+002 7.500000e+001 0.000000e+000
      vertex   -1.250000e+002 6.000000e+001 0.000000e+000
    endloop
  endfacet
  facet normal 0.000000e+000 0.000000e+000 -1.000000e+000
    outer loop
      vertex   -1.250000e+002 4.000000e+001 0.000000e+000
      vertex   -1.300000e+002 6.000000e+001 0.000000e+000
      vertex   -1.250000e+002 6.000000e+001 0.000000e+000
    endloop
  endfacet
  facet normal 0.000000e+000 0.000000e+000 -1.000000e+000
    outer loop
      vertex   -1.250000e+002 4.000000e+001 0.000000e+000
      vertex   -1.450000e+002 4.000000e+001 0.000000e+000
      vertex   -1.300000e+002 6.000000e+001 0.000000e+000
    endloop
  endfacet
  facet normal -0.000000e+000 0.000000e+000 -1.000000e+000
    outer loop
      vertex   -1.250000e+002 4.000000e+001 0.000000e+000
      vertex   -1.450000e+002 2.500000e+001 0.000000e+000
      vertex   -1.450000e+002 4.000000e+001 0.000000e+000
    endloop
  endfacet
  facet normal -0.000000e+000 -0.000000e+000 -1.000000e+000
    outer loop
      vertex   -1.250000e+002 4.000000e+001 0.000000e+000
      vertex   -1.050000e+002 2.500000e+001 0.000000e+000
      vertex   -1.450000e+002 2.500000e+001 0.000000e+000
    endloop
  endfacet
  facet normal 0.000000e+000 -0.000000e+000 -1.000000e+000
    outer loop
      vertex   -1.250000e+002 4.000000e+001 0.000000e+000
      vertex   -8.500000e+001 4.000000e+001 0.000000e+000
      vertex   -1.050000e+002 2.500000e+001 0.000000e+000
    endloop
  endfacet
  facet normal 0.000000e+000 0.000000e+000 -1.000000e+000
    outer loop
      vertex   -1.050000e+002 2.500000e+001 0.000000e+000
      vertex   -8.500000e+001 4.000000e+001 0.000000e+000
      vertex   -6.500000e+001 2.500000e+001 0.000000e+000
    endloop
  endfacet
  facet normal 0.000000e+000 0.000000e+000 -1.000000e+000
    outer loop
      vertex   -6.500000e+001 2.500000e+001 0.000000e+000
      vertex   -8.500000e+001 4.000000e+001 0.000000e+000
      vertex   -4.500000e+001 4.000000e+001 0.000000e+000
    endloop
  endfacet
  facet normal 0.000000e+000 0.000000e+000 -1.000000e+000
    outer loop
      vertex   -2.500000e+001 2.500000e+001 0.000000e+000
      vertex   -4.500000e+001 4.000000e+001 0.000000e+000
      vertex   -4.000000e+001 4.000000e+001 0.000000e+000
    endloop
  endfacet
  facet normal 0.000000e+000 0.000000e+000 -1.000000e+000
    outer loop
      vertex   -2.500000e+001 4.000000e+001 0.000000e+000
      vertex   -4.000000e+001 4.000000e+001 0.000000e+000
      vertex   -2.500000e+001 6.000000e+001 0.000000e+000
    endloop
  endfacet
  facet normal 0.000000e+000 0.000000e+000 -1.000000e+000
    outer loop
      vertex   -1.500000e+001 4.500000e+001 0.000000e+000
      vertex   -2.500000e+001 6.000000e+001 0.000000e+000
      vertex   -1.500000e+001 5.500000e+001 0.000000e+000
    endloop
  endfacet
  facet normal -0.000000e+000 0.000000e+000 -1.000000e+000
    outer loop
      vertex   -1.500000e+001 4.500000e+001 0.000000e+000
      vertex   -2.500000e+001 4.000000e+001 0.000000e+000
      vertex   -2.500000e+001 6.000000e+001 0.000000e+000
    endloop
  endfacet
  facet normal 0.000000e+000 -0.000000e+000 -1.000000e+000
    outer loop
      vertex   -1.500000e+001 4.500000e+001 0.000000e+000
      vertex   -5.000000e+000 4.500000e+001 0.000000e+000
      vertex   -2.500000e+001 4.000000e+001 0.000000e+000
    endloop
  endfacet
  facet normal 0.000000e+000 0.000000e+000 -1.000000e+000
    outer loop
      vertex   -2.500000e+001 4.000000e+001 0.000000e+000
      vertex   -5.000000e+000 4.500000e+001 0.000000e+000
      vertex   5.000000e+000 4.000000e+001 0.000000e+000
    endloop
  endfacet
  facet normal 0.000000e+000 0.000000e+000 -1.000000e+000
    outer loop
      vertex   5.000000e+000 4.000000e+001 0.000000e+000
      vertex   -5.000000e+000 4.500000e+001 0.000000e+000
      vertex   -5.000000e+000 5.500000e+001 0.000000e+000
    endloop
  endfacet
  facet normal -0.000000e+000 0.000000e+000 -1.000000e+000
    outer loop
      vertex   5.000000e+000 6.000000e+001 0.000000e+000
      vertex   -5.000000e+000 5.500000e+001 0.000000e+000
      vertex   -1.500000e+001 5.500000e+001 0.000000e+000
    endloop
  endfacet
  facet normal 0.000000e+000 -0.000000e+000 -1.000000e+000
    outer loop
      vertex   -2.500000e+001 6.000000e+001 0.000000e+000
      vertex   5.000000e+000 6.000000e+001 0.000000e+000
      vertex   -1.500000e+001 5.500000e+001 0.000000e+000
    endloop
  endfacet
  facet normal 0.000000e+000 0.000000e+000 -1.000000e+000
    outer loop
      vertex   -1.750000e+002 4.000000e+001 0.000000e+000
      vertex   -1.550000e+002 4.500000e+001 0.000000e+000
      vertex   -1.450000e+002 4.000000e+001 0.000000e+000
    endloop
  endfacet
  facet normal 0.000000e+000 0.000000e+000 -1.000000e+000
    outer loop
      vertex   5.000000e+000 4.000000e+001 0.000000e+000
      vertex   -5.000000e+000 5.500000e+001 0.000000e+000
      vertex   5.000000e+000 6.000000e+001 0.000000e+000
    endloop
  endfacet
  facet normal 0.000000e+000 0.000000e+000 -1.000000e+000
    outer loop
      vertex   -4.500000e+001 4.000000e+001 0.000000e+000
      vertex   -4.500000e+001 6.000000e+001 0.000000e+000
      vertex   -4.000000e+001 4.000000e+001 0.000000e+000
    endloop
  endfacet
  facet normal 0.000000e+000 0.000000e+000 -1.000000e+000
    outer loop
      vertex   -4.000000e+001 4.000000e+001 0.000000e+000
      vertex   -4.500000e+001 6.000000e+001 0.000000e+000
      vertex   -2.500000e+001 6.000000e+001 0.000000e+000
    endloop
  endfacet
  facet normal 0.000000e+000 0.000000e+000 -1.000000e+000
    outer loop
      vertex   -2.500000e+001 6.000000e+001 0.000000e+000
      vertex   -4.500000e+001 6.000000e+001 0.000000e+000
      vertex   -2.500000e+001 7.500000e+001 0.000000e+000
    endloop
  endfacet
  facet normal -0.000000e+000 0.000000e+000 -1.000000e+000
    outer loop
      vertex   -2.500000e+001 7.500000e+001 0.000000e+000
      vertex   -4.500000e+001 6.000000e+001 0.000000e+000
      vertex   -6.500000e+001 7.500000e+001 0.000000e+000
    endloop
  endfacet
  facet normal -0.000000e+000 -0.000000e+000 -1.000000e+000
    outer loop
      vertex   -6.500000e+001 7.500000e+001 0.000000e+000
      vertex   -4.500000e+001 6.000000e+001 0.000000e+000
      vertex   -8.500000e+001 6.000000e+001 0.000000e+000
    endloop
  endfacet
  facet normal -0.000000e+000 -0.000000e+000 -1.000000e+000
    outer loop
      vertex   -1.050000e+002 7.500000e+001 0.000000e+000
      vertex   -8.500000e+001 6.000000e+001 0.000000e+000
      vertex   -1.250000e+002 6.000000e+001 0.000000e+000
    endloop
  endfacet
  facet normal 0.000000e+000 -0.000000e+000 -1.000000e+000
    outer loop
      vertex   -1.450000e+002 7.500000e+001 0.000000e+000
      vertex   -1.050000e+002 7.500000e+001 0.000000e+000
      vertex   -1.250000e+002 6.000000e+001 0.000000e+000
    endloop
  endfacet
  facet normal -0.000000e+000 0.000000e+000 -1.000000e+000
    outer loop
      vertex   -6.500000e+001 7.500000e+001 0.000000e+000
      vertex   -8.500000e+001 6.000000e+001 0.000000e+000
      vertex   -1.050000e+002 7.500000e+001 0.000000e+000
    endloop
  endfacet
  facet normal -0.000000e+000 -0.000000e+000 -1.000000e+000
    outer loop
      vertex   -2.500000e+001 4.000000e+001 0.000000e+000
      vertex   -2.500000e+001 2.500000e+001 0.000000e+000
      vertex   -4.000000e+001 4.000000e+001 0.000000e+000
    endloop
  endfacet
  facet normal 0.000000e+000 0.000000e+000 -1.000000e+000
    outer loop
      vertex   -2.500000e+001 2.500000e+001 0.000000e+000
      vertex   -6.500000e+001 2.500000e+001 0.000000e+000
      vertex   -4.500000e+001 4.000000e+001 0.000000e+000
    endloop
  endfacet
  facet normal -0.000000e+000 -1.000000e+000 -0.000000e+000
    outer loop
      vertex   -1.399076e+002 2.500000e+001 5.000000e+001
      vertex   -1.450000e+002 2.500000e+001 5.000000e+001
      vertex   -1.399076e+002 2.500000e+001 8.000000e+000
    endloop
  endfacet
  facet normal -0.000000e+000 -1.000000e+000 -0.000000e+000
    outer loop
      vertex   -1.399076e+002 2.500000e+001 8.000000e+000
      vertex   -1.450000e+002 2.500000e+001 5.000000e+001
      vertex   -1.450000e+002 2.500000e+001 0.000000e+000
    endloop
  endfacet
  facet normal -0.000000e+000 -1.000000e+000 0.000000e+000
    outer loop
      vertex   -1.050000e+002 2.500000e+001 0.000000e+000
      vertex   -1.399076e+002 2.500000e+001 8.000000e+000
      vertex   -1.450000e+002 2.500000e+001 0.000000e+000
    endloop
  endfacet
  facet normal 0.000000e+000 -1.000000e+000 0.000000e+000
    outer loop
      vertex   -1.050000e+002 2.500000e+001 0.000000e+000
      vertex   -8.490762e+001 2.500000e+001 8.000000e+000
      vertex   -1.399076e+002 2.500000e+001 8.000000e+000
    endloop
  endfacet
  facet normal 0.000000e+000 -1.000000e+000 0.000000e+000
    outer loop
      vertex   -1.050000e+002 2.500000e+001 0.000000e+000
      vertex   -6.500000e+001 2.500000e+001 0.000000e+000
      vertex   -8.490762e+001 2.500000e+001 8.000000e+000
    endloop
  endfacet
  facet normal 0.000000e+000 -1.000000e+000 0.000000e+000
    outer loop
      vertex   -8.490762e+001 2.500000e+001 8.000000e+000
      vertex   -6.500000e+001 2.500000e+001 0.000000e+000
      vertex   -2.990762e+001 2.500000e+001 8.000000e+000
    endloop
  endfacet
  facet normal 0.000000e+000 -1.000000e+000 -0.000000e+000
    outer loop
      vertex   -2.990762e+001 2.500000e+001 8.000000e+000
      vertex   -6.500000e+001 2.500000e+001 0.000000e+000
      vertex   -2.500000e+001 2.500000e+001 0.000000e+000
    endloop
  endfacet
  facet normal 0.000000e+000 -1.000000e+000 -0.000000e+000
    outer loop
      vertex   -2.500000e+001 2.500000e+001 5.000000e+001
      vertex   -2.990762e+001 2.500000e+001 8.000000e+000
      vertex   -2.500000e+001 2.500000e+001 0.000000e+000
    endloop
  endfacet
  facet normal -0.000000e+000 -1.000000e+000 -0.000000e+000
    outer loop
      vertex   -2.500000e+001 2.500000e+001 5.000000e+001
      vertex   -2.990762e+001 2.500000e+001 5.000000e+001
      vertex   -2.990762e+001 2.500000e+001 8.000000e+000
    endloop
  endfacet
  facet normal -1.000000e+000 0.000000e+000 0.000000e+000
    outer loop
      vertex   -1.450000e+002 4.000000e+001 0.000000e+000
      vertex   -1.450000e+002 2.500000e+001 0.000000e+000
      vertex   -1.450000e+002 4.000000e+001 1.000000e+001
    endloop
  endfacet
  facet normal -1.000000e+000 -0.000000e+000 0.000000e+000
    outer loop
      vertex   -1.450000e+002 4.000000e+001 1.000000e+001
      vertex   -1.450000e+002 2.500000e+001 0.000000e+000
      vertex   -1.450000e+002 2.500000e+001 5.000000e+001
    endloop
  endfacet
  facet normal -1.000000e+000 0.000000e+000 0.000000e+000
    outer loop
      vertex   -1.450000e+002 6.000000e+001 1.000000e+001
      vertex   -1.450000e+002 2.500000e+001 5.000000e+001
      vertex   -1.450000e+002 7.500000e+001 5.000000e+001
    endloop
  endfacet
  facet normal -1.000000e+000 0.000000e+000 0.000000e+000
    outer loop
      vertex   -1.450000e+002 7.500000e+001 0.000000e+000
      vertex   -1.450000e+002 6.000000e+001 1.000000e+001
      vertex   -1.450000e+002 7.500000e+001 5.000000e+001
    endloop
  endfacet
  facet normal -1.000000e+000 0.000000e+000 0.000000e+000
    outer loop
      vertex   -1.450000e+002 7.500000e+001 0.000000e+000
      vertex   -1.450000e+002 6.000000e+001 0.000000e+000
      vertex   -1.450000e+002 6.000000e+001 1.000000e+001
    endloop
  endfacet
  facet normal -1.000000e+000 0.000000e+000 0.000000e+000
    outer loop
      vertex   -1.450000e+002 4.000000e+001 1.000000e+001
      vertex   -1.450000e+002 2.500000e+001 5.000000e+001
      vertex   -1.450000e+002 6.000000e+001 1.000000e+001
    endloop
  endfacet
endsolid
